<?xml version="1.0" standalone="no"?>
<!DOCTYPE svg PUBLIC "-//W3C//DTD SVG 20010904//EN"
 "http://www.w3.org/TR/2001/REC-SVG-20010904/DTD/svg10.dtd">
<svg version="1.0" xmlns="http://www.w3.org/2000/svg"
 width="1024.000000pt" height="1024.000000pt" viewBox="0 0 1024.000000 1024.000000"
 preserveAspectRatio="xMidYMid meet">

<g transform="translate(0.000000,1024.000000) scale(0.100000,-0.100000)"
fill="#000000" stroke="none">
<path d="M3655 9190 c-151 -23 -213 -157 -316 -688 -33 -172 -34 -173 -67
-194 -73 -45 -168 -201 -193 -317 -7 -31 -14 -58 -15 -59 -1 -2 -25 14 -53 36
-194 154 -518 241 -783 212 -431 -48 -783 -334 -922 -751 -50 -150 -59 -216
-53 -397 6 -188 31 -291 106 -447 101 -207 262 -367 474 -471 63 -31 64 -32
46 -130 -16 -94 -16 -94 -57 -94 -19 0 -65 -7 -101 -16 -290 -71 -461 -333
-478 -734 -10 -232 44 -397 169 -516 35 -32 74 -66 88 -75 l24 -16 -18 -77
c-40 -171 22 -278 178 -307 112 -20 209 35 268 153 l24 48 80 -51 c113 -72
262 -145 368 -181 76 -26 107 -31 191 -32 92 -1 105 2 168 31 37 18 87 47 110
66 23 18 80 48 127 66 175 68 294 145 443 290 65 63 97 88 97 76 0 -27 70
-715 76 -755 11 -62 62 -155 108 -198 65 -60 112 -79 248 -103 68 -12 124 -22
125 -23 1 -1 -7 -58 -18 -126 -10 -69 -19 -144 -19 -166 l0 -41 -89 -32 c-207
-74 -427 -255 -508 -418 -23 -45 -47 -107 -53 -137 -10 -51 -14 -56 -43 -60
-18 -3 -91 -14 -163 -25 -73 -11 -156 -28 -185 -38 -46 -15 -54 -22 -54 -43 0
-20 8 -27 45 -41 156 -58 717 -106 1520 -130 423 -13 1496 -7 1815 10 551 30
900 70 1008 115 38 16 49 44 25 64 -31 24 -173 53 -438 87 l-45 6 -23 72 c-67
212 -280 431 -482 496 l-35 11 -24 168 c-12 92 -25 179 -28 193 -4 24 0 28 56
49 33 12 90 42 127 67 l66 44 37 -34 c21 -19 52 -42 70 -53 18 -10 46 -40 63
-66 38 -61 159 -173 231 -217 136 -81 269 -112 396 -92 186 29 319 144 362
315 7 28 32 78 56 112 88 126 126 251 122 405 -2 105 -2 107 28 145 80 102
182 287 226 410 58 162 54 291 -12 429 -64 132 -176 246 -373 378 l-108 71 0
52 c0 68 -33 129 -96 177 -67 51 -249 140 -359 176 l-90 29 3 33 c5 55 42 371
47 405 4 24 17 39 56 64 94 61 152 167 189 351 58 281 21 503 -104 637 l-46
49 1 144 c1 165 -11 222 -68 333 -27 53 -62 96 -137 171 l-101 100 -19 165
c-60 551 -143 779 -298 820 -88 24 -180 -10 -329 -122 -106 -79 -323 -294
-419 -416 l-73 -93 -56 7 c-31 5 -351 8 -712 8 l-656 1 -41 60 c-106 155 -321
383 -453 480 -111 81 -177 106 -254 95z m9 -168 c-6 -4 -21 -25 -32 -47 -12
-22 -21 -36 -22 -32 -1 17 41 87 53 87 8 0 9 -2 1 -8z m2895 -16 c-10 -9 -69
-36 -69 -32 0 7 52 35 64 36 5 0 7 -2 5 -4z m-79 -40 c0 -2 -17 -16 -37 -31
l-38 -26 35 30 c34 31 40 35 40 27z m-105 -84 c-17 -16 -78 -73 -136 -128 -90
-84 -86 -79 23 29 71 70 132 127 136 127 4 0 -7 -13 -23 -28z m-2788 -34 c-3
-8 -6 -5 -6 6 -1 11 2 17 5 13 3 -3 4 -12 1 -19z m-10 -40 c-3 -8 -6 -5 -6 6
-1 11 2 17 5 13 3 -3 4 -12 1 -19z m-13 -62 c-3 -21 -8 -35 -11 -32 -2 2 -1
20 3 40 3 21 8 35 11 32 2 -2 1 -20 -3 -40z m-17 -78 c-3 -7 -5 -2 -5 12 0 14
2 19 5 13 2 -7 2 -19 0 -25z m-10 -50 c-3 -7 -5 -2 -5 12 0 14 2 19 5 13 2 -7
2 -19 0 -25z m2593 19 c0 -2 -19 -21 -42 -42 l-43 -40 40 43 c36 39 45 47 45
39z m-2607 -87 c-3 -12 -8 -19 -11 -16 -5 6 5 36 12 36 2 0 2 -9 -1 -20z
m2527 -4 c0 -2 -8 -10 -17 -17 -16 -13 -17 -12 -4 4 13 16 21 21 21 13z m119
-32 c9 -8 -55 -2 -74 6 -13 6 -5 7 25 3 25 -3 47 -7 49 -9z m-2669 -64 l-11
-25 6 25 c2 14 5 34 6 45 2 19 2 19 6 0 2 -12 -1 -32 -7 -45z m2765 50 c42
-11 1 -11 -50 -1 -34 7 -35 9 -10 9 17 0 44 -4 60 -8z m-2605 -40 c-8 -5 -22
-9 -30 -9 -10 0 -8 3 5 9 27 12 43 12 25 0z m-65 -20 c-11 -5 -27 -9 -35 -9
-9 0 -8 4 5 9 11 5 27 9 35 9 9 0 8 -4 -5 -9z m-65 -17 c-8 -3 -23 -10 -32
-15 -11 -5 -18 -5 -18 1 0 10 23 18 50 19 13 0 13 0 0 -5z m2215 -54 c290 -11
407 -22 525 -50 120 -28 177 -62 217 -128 37 -61 49 -112 57 -231 7 -99 1 -96
-9 4 -7 67 -9 71 -59 121 -83 83 -217 121 -511 144 -77 7 -158 14 -180 16
-100 12 -1436 17 -1585 6 -236 -17 -400 -44 -564 -93 -126 -37 -167 -58 -232
-120 -71 -67 -108 -127 -135 -219 l-22 -75 52 -88 c29 -49 50 -90 48 -92 -2
-2 -14 15 -27 39 -13 23 -45 76 -71 117 l-48 76 15 74 c22 112 84 231 145 279
130 104 398 177 769 212 278 25 1082 30 1615 8z m-3155 -369 c163 -46 334
-155 432 -274 64 -77 138 -215 167 -309 30 -97 46 -274 34 -367 -8 -71 -9 -67
-9 70 0 192 -26 310 -100 451 -27 51 -40 67 -46 57 -8 -10 -9 -9 -5 3 7 21
-19 60 -84 126 -46 47 -53 51 -64 36 -10 -14 -12 -13 -10 8 2 29 -35 57 -71
53 -17 -1 -24 2 -21 10 3 6 -3 12 -13 12 -10 0 -16 -6 -13 -13 3 -7 0 -13 -5
-13 -6 0 -13 9 -17 20 -3 11 -12 19 -18 17 -7 -1 -11 3 -10 9 1 6 -4 11 -12
11 -8 0 -11 -5 -8 -10 4 -6 -2 -8 -15 -5 -12 4 -24 2 -27 -3 -3 -4 -12 -6 -20
-2 -8 3 -15 0 -15 -7 0 -6 5 -8 10 -5 9 5 14 -7 12 -27 -1 -3 5 -9 13 -12 18
-6 20 5 4 21 -6 6 -8 16 -5 21 8 13 46 3 46 -12 0 -6 5 -4 10 4 7 11 10 11 10
2 0 -7 5 -10 10 -7 6 3 10 -1 10 -9 0 -10 -6 -13 -17 -9 -11 5 -14 3 -8 -6 6
-10 3 -11 -14 -2 -17 10 -21 9 -21 -4 0 -9 5 -13 10 -10 6 3 10 1 10 -5 0 -6
6 -8 13 -4 6 4 9 4 5 -1 -4 -4 20 -28 53 -52 33 -25 78 -67 101 -94 22 -27 45
-46 51 -42 6 3 7 2 4 -4 -3 -5 3 -22 14 -39 125 -184 167 -461 103 -682 -25
-87 -77 -199 -125 -268 -15 -23 -26 -44 -24 -48 3 -3 3 -4 -1 -2 -3 2 -28 -21
-57 -51 -64 -68 -154 -136 -229 -174 -72 -36 -218 -79 -270 -79 -23 0 -37 -4
-33 -10 3 -5 1 -10 -4 -10 -6 0 -11 5 -11 11 0 6 -6 9 -13 6 -24 -9 -168 12
-236 34 -61 20 -135 54 -206 96 -41 24 -206 192 -225 229 -28 54 -57 93 -65
86 -5 -4 -5 -1 -1 6 4 7 4 22 0 34 -6 21 -7 21 -20 4 -14 -20 -50 -14 -38 6 5
8 2 9 -9 5 -9 -3 -19 -2 -22 3 -4 6 -1 10 4 10 6 0 11 8 12 18 0 13 3 11 10
-6 5 -13 13 -20 19 -17 5 3 10 1 10 -6 0 -10 3 -10 11 -2 8 8 7 24 -5 59 -9
26 -16 55 -16 65 0 10 -4 20 -9 23 -5 4 -7 -8 -4 -26 4 -18 6 -41 7 -50 0 -9
4 -15 8 -12 4 2 6 -5 5 -16 -1 -20 -2 -20 -14 -4 -7 10 -13 28 -13 40 0 22
-24 39 -41 28 -17 -10 -9 -25 9 -20 12 4 19 1 19 -8 0 -9 -9 -13 -24 -11 -14
1 -23 -3 -23 -11 0 -8 6 -11 15 -8 8 4 15 1 15 -6 0 -6 -4 -8 -10 -5 -15 9
-12 -7 11 -69 12 -32 26 -53 32 -49 5 3 7 1 4 -5 -11 -16 3 -41 19 -35 8 3 11
10 7 16 -3 6 -1 7 5 3 17 -10 15 -26 -4 -26 -9 0 -14 -6 -11 -12 2 -7 13 -12
23 -10 15 2 16 1 5 -6 -11 -8 -10 -15 5 -41 13 -22 21 -27 27 -18 6 8 7 7 4
-5 -7 -19 46 -91 58 -80 5 4 5 2 2 -4 -8 -14 89 -101 106 -96 7 2 9 0 5 -4
-19 -18 145 -112 268 -155 71 -24 108 -31 179 -32 50 -1 92 -5 95 -8 7 -9 138
7 217 26 141 35 318 138 425 248 63 65 120 146 112 160 -4 6 -3 9 1 4 20 -18
92 135 131 278 13 44 23 71 23 61 2 -37 -41 -171 -80 -251 -124 -259 -369
-456 -649 -520 -97 -23 -280 -23 -374 -1 -172 41 -304 115 -436 246 -196 195
-280 413 -267 690 12 253 104 456 294 642 93 91 142 128 231 172 162 80 242
97 437 92 113 -4 168 -10 225 -26z m1198 13 c-10 -2 -28 -2 -40 0 -13 2 -5 4
17 4 22 1 32 -1 23 -4z m49 1 c-3 -3 -12 -4 -19 -1 -8 3 -5 6 6 6 11 1 17 -2
13 -5z m120 -1 c-20 -2 -52 -2 -70 0 -17 2 0 4 38 4 39 0 53 -2 32 -4z m131 0
c-15 -2 -42 -2 -60 0 -18 2 -6 4 27 4 33 0 48 -2 33 -4z m65 0 c-7 -2 -19 -2
-25 0 -7 3 -2 5 12 5 14 0 19 -2 13 -5z m64 1 c-3 -3 -12 -4 -19 -1 -8 3 -5 6
6 6 11 1 17 -2 13 -5z m101 -1 c-10 -2 -26 -2 -35 0 -10 3 -2 5 17 5 19 0 27
-2 18 -5z m79 1 c-3 -3 -12 -4 -19 -1 -8 3 -5 6 6 6 11 1 17 -2 13 -5z m-697
-14 c-8 -5 -19 -10 -25 -10 -5 0 -3 5 5 10 8 5 20 10 25 10 6 0 3 -5 -5 -10z
m1167 4 c-3 -3 -12 -4 -19 -1 -8 3 -5 6 6 6 11 1 17 -2 13 -5z m106 -1 c-18
-2 -48 -2 -65 0 -18 2 -4 4 32 4 36 0 50 -2 33 -4z m70 0 c-7 -2 -19 -2 -25 0
-7 3 -2 5 12 5 14 0 19 -2 13 -5z m95 0 c-10 -2 -28 -2 -40 0 -13 2 -5 4 17 4
22 1 32 -1 23 -4z m140 0 c-21 -2 -57 -2 -80 0 -24 2 -7 4 37 4 44 0 63 -2 43
-4z m90 0 c-10 -2 -26 -2 -35 0 -10 3 -2 5 17 5 19 0 27 -2 18 -5z m260 0
c-42 -2 -114 -2 -160 0 -46 1 -11 3 77 3 88 0 125 -2 83 -3z m109 1 c-3 -3
-12 -4 -19 -1 -8 3 -5 6 6 6 11 1 17 -2 13 -5z m46 -1 c-7 -2 -19 -2 -25 0 -7
3 -2 5 12 5 14 0 19 -2 13 -5z m231 -2 c10 -4 -26 -5 -80 -4 -139 5 -157 10
-39 11 55 0 108 -3 119 -7z m-2374 -29 c-14 -9 -45 -36 -69 -60 -23 -25 -38
-35 -32 -24 14 26 100 102 115 101 6 0 0 -7 -14 -17z m2519 -48 c47 -42 82
-90 81 -111 -1 -4 -8 6 -17 22 -21 40 -50 72 -97 106 -21 16 -34 29 -29 29 6
0 34 -21 62 -46z m378 -186 c-2 -24 -4 -5 -4 42 0 47 2 66 4 43 2 -24 2 -62 0
-85z m-550 91 c42 -13 90 -69 99 -116 4 -20 -5 -193 -20 -383 -14 -190 -40
-518 -56 -730 -35 -462 -35 -456 -66 -497 -54 -72 36 -68 -1194 -54 -860 10
-1112 16 -1136 26 -51 21 -87 78 -92 143 -2 32 8 188 22 347 15 160 40 450 56
645 49 579 47 568 121 619 l34 23 1100 -7 c688 -4 1112 -10 1132 -16z m-3212
1 c-3 -5 -12 -10 -18 -10 -7 0 -6 4 3 10 19 12 23 12 15 0z m74 -6 c-9 -11
-15 -11 -25 -3 -18 15 -18 14 11 15 21 2 24 -1 14 -12z m652 -25 c-5 -13 -10
-19 -10 -12 -1 15 10 45 15 40 3 -2 0 -15 -5 -28z m-654 -5 c-3 -3 -12 -4 -19
-1 -8 3 -5 6 6 6 11 1 17 -2 13 -5z m6 -34 c-3 -12 -8 -19 -11 -16 -5 6 5 36
12 36 2 0 2 -9 -1 -20z m3404 -117 c-2 -27 -3 -5 -3 47 0 52 1 74 3 48 2 -27
2 -69 0 -95z m-2770 90 c-3 -10 -5 -4 -5 12 0 17 2 24 5 18 2 -7 2 -21 0 -30z
m-587 -13 c0 -5 -5 -10 -11 -10 -5 0 -7 5 -4 10 3 6 8 10 11 10 2 0 4 -4 4
-10z m577 -102 c-2 -18 -4 -4 -4 32 0 36 2 50 4 33 2 -18 2 -48 0 -65z m3046
-59 c-4 -4 -6 20 -3 54 l5 62 3 -54 c2 -30 0 -58 -5 -62z m-3488 53 c-3 -3
-11 0 -18 7 -9 10 -8 11 6 5 10 -3 15 -9 12 -12z m430 -147 c-4 -58 -10 -104
-12 -101 -3 3 -2 52 2 111 4 58 10 104 12 101 3 -3 2 -52 -2 -111z m2782 53
c-2 -13 -4 -3 -4 22 0 25 2 35 4 23 2 -13 2 -33 0 -45z m-3157 48 c0 -2 -7 -7
-16 -10 -8 -3 -12 -2 -9 4 6 10 25 14 25 6z m278 -41 c-3 -3 -9 2 -12 12 -6
14 -5 15 5 6 7 -7 10 -15 7 -18z m3149 -62 c-2 -16 -4 -3 -4 27 0 30 2 43 4
28 2 -16 2 -40 0 -55z m-3452 57 c3 -5 1 -10 -4 -10 -6 0 -11 5 -11 10 0 6 2
10 4 10 3 0 8 -4 11 -10z m325 -45 c0 -5 -5 -3 -10 5 -5 8 -10 20 -10 25 0 6
5 3 10 -5 5 -8 10 -19 10 -25z m2847 -82 c-2 -16 -4 -3 -4 27 0 30 2 43 4 28
2 -16 2 -40 0 -55z m-2828 27 c0 -10 -3 -8 -9 5 -12 27 -12 43 0 25 5 -8 9
-22 9 -30z m3095 -122 c-4 -57 -9 -97 -12 -90 -5 17 8 205 15 198 3 -2 1 -51
-3 -108z m-3075 52 c0 -9 -4 -8 -9 5 -5 11 -9 27 -9 35 0 9 4 8 9 -5 5 -11 9
-27 9 -35z m2796 -130 c-4 -61 -9 -109 -12 -106 -3 2 -2 54 2 116 4 61 10 109
12 106 3 -3 2 -55 -2 -116z m816 94 c-23 -29 -82 -204 -102 -299 -6 -33 -13
-134 -14 -225 -2 -91 -3 -168 -4 -172 -1 -4 -16 -7 -33 -5 -30 2 -34 6 -46 52
-18 70 -10 369 13 449 39 138 109 223 188 225 17 1 17 -1 -2 -25z m-3592 -49
c-1 -39 -2 -39 -9 -10 -4 17 -8 41 -9 55 0 20 1 22 9 10 5 -8 9 -33 9 -55z
m3038 -152 c-2 -16 -4 -5 -4 22 0 28 2 40 4 28 2 -13 2 -35 0 -50z m-282 -140
c-4 -52 -9 -92 -12 -90 -2 3 -1 51 3 108 4 57 9 98 12 91 2 -8 1 -56 -3 -109z
m272 25 c-2 -18 -4 -6 -4 27 0 33 2 48 4 33 2 -15 2 -42 0 -60z m-12 -168 c-4
-55 -10 -99 -12 -96 -3 3 -2 50 2 106 4 56 9 99 12 96 3 -2 1 -50 -2 -106z
m-3054 -95 c-5 -96 -5 -98 -11 -40 -5 47 7 154 15 142 1 -1 -1 -47 -4 -102z
m2776 23 c-2 -18 -4 -6 -4 27 0 33 2 48 4 33 2 -15 2 -42 0 -60z m-4660 -24
c-3 -3 -12 -4 -19 -1 -8 3 -5 6 6 6 11 1 17 -2 13 -5z m1857 -26 c-14 -47 -25
-71 -29 -66 -3 2 3 23 12 46 17 44 29 58 17 20z m2793 -70 c-2 -18 -4 -6 -4
27 0 33 2 48 4 33 2 -15 2 -42 0 -60z m-4612 44 c-3 -3 -11 0 -18 7 -9 10 -8
11 6 5 10 -3 15 -9 12 -12z m4882 -49 c-2 -16 -4 -5 -4 22 0 28 2 40 4 28 2
-13 2 -35 0 -50z m-4855 -11 c-2 -16 -9 -29 -16 -29 -10 0 -10 7 1 29 8 15 16
28 17 28 1 0 1 -13 -2 -28z m1749 -15 c-10 -9 -11 -8 -5 6 3 10 9 15 12 12 3
-3 0 -11 -7 -18z m56 -54 c-2 -16 -4 -3 -4 27 0 30 2 43 4 28 2 -16 2 -40 0
-55z m-1759 32 c-3 -3 -9 2 -12 12 -6 14 -5 15 5 6 7 -7 10 -15 7 -18z m4799
-52 c-2 -16 -4 -5 -4 22 0 28 2 40 4 28 2 -13 2 -35 0 -50z m-3116 34 c-10 -9
-11 -8 -5 6 3 10 9 15 12 12 3 -3 0 -11 -7 -18z m2846 -69 c-2 -18 -4 -6 -4
27 0 33 2 48 4 33 2 -15 2 -42 0 -60z m-2868 30 c-15 -28 -88 -128 -94 -128
-2 0 19 34 48 75 51 75 68 95 46 53z m88 -110 c-2 -13 -4 -3 -4 22 0 25 2 35
4 23 2 -13 2 -33 0 -45z m3037 -45 c-4 -54 -10 -89 -12 -79 -5 24 8 189 15
183 2 -3 1 -49 -3 -104z m-267 -5 c-2 -18 -4 -4 -4 32 0 36 2 50 4 33 2 -18 2
-48 0 -65z m-4432 62 c3 -6 -1 -7 -9 -4 -18 7 -21 14 -7 14 6 0 13 -4 16 -10z
m1457 -63 c-13 -13 -23 -38 -24 -58 l-1 -34 -4 34 c-3 24 1 39 18 57 12 13 25
24 27 24 3 0 -4 -10 -16 -23z m195 -74 c-2 -21 -4 -6 -4 32 0 39 2 55 4 38 2
-18 2 -50 0 -70z m2768 -90 c-4 -47 -9 -82 -11 -80 -3 2 -1 49 3 103 4 55 9
90 11 80 2 -11 1 -57 -3 -103z m-2998 -10 c-2 -16 -4 -3 -4 27 0 30 2 43 4 28
2 -16 2 -40 0 -55z m3260 0 c-2 -16 -4 -5 -4 22 0 28 2 40 4 28 2 -13 2 -35 0
-50z m-3040 10 c-3 -10 -5 -4 -5 12 0 17 2 24 5 18 2 -7 2 -21 0 -30z m-387
-120 c0 -121 14 -187 59 -278 66 -131 173 -231 292 -270 l50 -17 -40 -43 c-78
-85 -112 -200 -92 -310 6 -31 9 -61 6 -65 -10 -16 -184 -129 -265 -171 l-85
-45 -46 35 c-25 20 -80 60 -123 89 l-76 52 16 38 c58 129 70 308 27 403 -49
109 -150 178 -273 187 -58 4 -73 9 -93 31 l-24 26 29 121 c32 136 30 134 133
134 104 0 350 89 455 164 19 14 38 25 43 26 4 0 7 -48 7 -107z m397 65 c-3 -8
-6 -5 -6 6 -1 11 2 17 5 13 3 -3 4 -12 1 -19z m-229 -128 c0 -33 -1 -32 -9 10
-4 25 -7 59 -7 75 0 26 1 25 9 -10 4 -22 8 -56 7 -75z m3249 78 c-3 -8 -6 -5
-6 6 -1 11 2 17 5 13 3 -3 4 -12 1 -19z m-282 -38 c-24 -46 -94 -119 -129
-136 -31 -14 -31 -14 -6 3 49 33 118 111 131 148 8 20 15 32 17 26 2 -5 -4
-24 -13 -41z m-2706 10 c11 -24 11 -24 -3 -6 -9 11 -16 24 -16 30 0 12 5 7 19
-24z m2978 -63 c-4 -29 -14 -71 -22 -93 -9 -21 -13 -28 -10 -14 4 14 12 55 18
93 14 80 22 89 14 14z m-2848 -63 c25 -14 35 -22 21 -18 -33 9 -95 54 -121 90
-16 21 -12 19 16 -9 21 -21 59 -50 84 -63z m-370 -9 c0 -5 -4 -3 -9 5 -5 8 -9
22 -9 30 0 16 17 -16 18 -35z m29 -57 c6 -16 10 -28 7 -28 -5 0 -35 56 -35 67
0 12 15 -10 28 -39z m555 25 c-7 -2 -19 -2 -25 0 -7 3 -2 5 12 5 14 0 19 -2
13 -5z m655 -1 c32 -7 -518 -5 -568 2 -14 2 101 4 255 4 154 0 295 -2 313 -6z
m1517 -7 c-24 -11 -97 -14 -350 -12 l-320 1 332 6 c182 3 335 8 339 13 4 4 12
7 18 6 6 0 -2 -7 -19 -14z m-977 -2 c-93 -2 -243 -2 -335 0 -93 1 -17 3 167 3
184 0 260 -2 168 -3z m250 -10 c-10 -2 -26 -2 -35 0 -10 3 -2 5 17 5 19 0 27
-2 18 -5z m1143 -36 c-10 -9 -11 -8 -5 6 3 10 9 15 12 12 3 -3 0 -11 -7 -18z
m-3091 -52 c24 -29 24 -29 2 -10 -13 11 -28 29 -34 40 -11 21 -8 18 32 -30z
m3051 -14 c-38 -53 -146 -132 -178 -131 -4 1 14 13 42 27 27 14 72 49 100 79
57 61 65 66 36 25z m-2913 -82 c79 -37 169 -49 422 -55 135 -4 247 -9 250 -12
12 -12 -499 8 -565 23 -73 15 -186 67 -208 94 -7 9 3 6 23 -8 19 -12 54 -31
78 -42z m-1326 23 c76 -22 135 -61 144 -97 5 -19 -2 -34 -30 -67 -32 -37 -73
-111 -89 -159 -5 -15 -11 -15 -64 4 -61 20 -221 35 -267 23 -14 -3 -26 -13
-26 -21 0 -23 38 -41 120 -59 79 -17 173 -64 188 -94 5 -9 13 -48 16 -87 11
-114 32 -171 77 -216 38 -38 40 -43 25 -57 -14 -14 -24 -12 -113 31 -54 26
-127 53 -163 62 -84 19 -180 20 -206 1 -19 -15 -19 -15 2 -36 12 -12 62 -33
117 -49 105 -30 194 -82 203 -117 12 -48 -41 -109 -121 -140 -60 -23 -191 -16
-258 14 -64 28 -140 111 -183 197 -103 211 -40 594 126 765 116 119 306 157
502 102z m4951 21 c-13 -2 -33 -2 -45 0 -13 2 -3 4 22 4 25 0 35 -2 23 -4z
m115 -4 c50 -12 233 -96 267 -122 11 -9 -34 11 -100 43 -72 36 -148 65 -190
74 -38 8 -60 15 -47 15 13 1 44 -4 70 -10z m-228 -25 c-25 -14 -58 -37 -75
-52 -26 -24 -27 -24 -10 -3 22 26 103 81 119 81 6 0 -9 -12 -34 -26z m-800
-74 c-8 -5 -22 -9 -30 -9 -10 0 -8 3 5 9 27 12 43 12 25 0z m-860 -27 c3 -3
-242 -2 -545 2 -302 4 -552 9 -555 12 -3 3 243 2 545 -2 303 -4 552 -9 555
-12z m790 7 c-14 -4 -34 -8 -45 -8 -16 0 -15 2 5 8 14 4 34 8 45 8 16 0 15 -2
-5 -8z m758 -15 c-6 -14 -13 -23 -15 -21 -5 5 15 46 22 46 3 0 -1 -11 -7 -25z
m-1250 -2 c-10 -2 -28 -2 -40 0 -13 2 -5 4 17 4 22 1 32 -1 23 -4z m1914 -31
c11 -13 11 -14 -1 -8 -7 5 -33 8 -58 8 -125 -3 -278 -167 -304 -326 l-8 -51 3
50 c7 134 160 314 285 335 61 10 69 9 83 -8z m-4940 -69 c39 -36 54 -67 61
-125 12 -90 -28 -226 -89 -297 -73 -87 -206 -94 -260 -14 -27 39 -27 204 0
283 60 174 192 245 288 153z m4245 15 c-3 -8 -6 -5 -6 6 -1 11 2 17 5 13 3 -3
4 -12 1 -19z m-10 -100 c-2 -18 -4 -6 -4 27 0 33 2 48 4 33 2 -15 2 -42 0 -60z
m760 -28 c43 -22 82 -45 88 -51 5 -6 -29 10 -78 35 -48 25 -97 46 -108 46 -31
0 -124 -99 -136 -145 -6 -22 -11 -32 -12 -22 -3 50 105 177 150 177 10 0 53
-18 96 -40z m-3781 -58 c24 0 48 -3 52 -6 6 -6 31 -285 62 -691 6 -77 13 -156
15 -175 2 -19 9 -93 15 -165 22 -249 51 -490 63 -515 7 -13 23 -27 37 -31 l25
-7 -27 -1 c-75 -3 -155 65 -178 148 -14 55 -40 333 -100 1081 -34 424 -33 401
-19 378 7 -13 22 -17 55 -16z m4000 -80 c43 -33 97 -79 119 -103 32 -34 27
-32 -23 14 -34 31 -93 77 -130 103 -75 53 -97 72 -66 56 12 -6 57 -38 100 -70z
m24 -147 c-25 -8 -70 -33 -100 -56 -47 -36 -51 -37 -26 -10 34 35 120 81 150
80 12 0 1 -7 -24 -14z m-734 -175 c73 -27 154 -26 209 1 l43 21 95 -58 c53
-33 96 -63 97 -67 0 -5 -30 -51 -67 -102 l-68 -92 -70 -5 c-84 -6 -148 -32
-207 -85 -27 -25 -61 -45 -93 -53 -58 -15 -155 -59 -202 -90 l-33 -22 5 29 c3
15 16 152 30 303 14 151 28 291 31 311 l5 37 86 -54 c47 -29 109 -62 139 -74z
m825 39 c-65 -13 -105 -50 -211 -197 -52 -72 -96 -130 -98 -128 -5 6 174 248
205 278 39 37 83 58 118 57 24 -1 22 -3 -14 -10z m76 -5 c-3 -3 -12 -4 -19 -1
-8 3 -5 6 6 6 11 1 17 -2 13 -5z m53 -30 c0 -2 -9 0 -20 6 -11 6 -20 13 -20
16 0 2 9 0 20 -6 11 -6 20 -13 20 -16z m-4660 12 c0 -2 -8 -10 -17 -17 -16
-13 -17 -12 -4 4 13 16 21 21 21 13z m985 -26 c-3 -5 -12 -10 -19 -10 -7 0
-26 -12 -41 -27 -25 -26 -27 -26 -16 -5 7 13 27 30 44 37 39 17 40 17 32 5z
m58 3 c-7 -2 -21 -2 -30 0 -10 3 -4 5 12 5 17 0 24 -2 18 -5z m-1083 -7 c0 -2
-8 -10 -17 -17 -16 -13 -17 -12 -4 4 13 16 21 21 21 13z m1338 -3 c-43 -2
-113 -2 -155 0 -43 1 -8 3 77 3 85 0 120 -2 78 -3z m607 -13 l160 -6 -130 -1
c-71 0 -215 3 -320 6 l-190 7 160 1 c88 0 232 -3 320 -7z m-2515 -56 c0 -3
-13 4 -30 16 -16 12 -30 24 -30 26 0 3 14 -4 30 -16 17 -12 30 -24 30 -26z
m2739 11 l31 -36 -2 -167 -2 -167 -6 170 c-3 94 -9 176 -14 183 -4 8 -22 22
-40 33 -19 12 -25 19 -15 19 10 0 31 -16 48 -35z m-2999 -31 c-56 -161 -258
-334 -391 -334 -55 0 -86 24 -55 42 45 25 96 83 129 146 20 38 47 74 61 81 13
8 39 33 56 57 30 43 33 44 88 45 31 1 68 5 82 9 48 15 50 13 30 -46z m177 14
c-3 -7 -5 -2 -5 12 0 14 2 19 5 13 2 -7 2 -19 0 -25z m533 -8 c-14 -11 -52
-33 -85 -50 -68 -35 -59 -27 35 30 72 43 88 50 50 20z m1057 -132 c-2 -29 -3
-6 -3 52 0 58 1 81 3 53 2 -29 2 -77 0 -105z m-1451 111 c4 -8 1 -8 -14 0 -12
6 -24 16 -28 22 -4 8 -1 8 14 0 12 -6 24 -16 28 -22z m-171 -66 c-9 -15 -13
-19 -10 -8 4 11 10 29 13 40 3 11 7 14 9 8 3 -7 -3 -24 -12 -40z m300 -69 c8
-18 14 -49 14 -71 -1 -24 -3 -29 -6 -13 -2 14 -6 39 -9 57 -3 20 -25 55 -56
90 l-52 58 47 -44 c25 -25 53 -59 62 -77z m1578 89 l-121 -4 5 -102 c3 -56 3
-100 1 -97 -3 3 -8 51 -12 108 l-6 102 127 -2 128 -2 -122 -3z m429 -10 c-51
-2 -132 -2 -180 0 -48 1 -6 3 93 3 99 0 138 -2 87 -3z m436 -70 l-2 -68 -3 62
-4 62 -147 4 -147 3 153 2 152 2 -2 -67z m-2793 -30 c-34 -53 -45 -67 -45 -60
0 10 51 87 57 87 3 0 -3 -12 -12 -27z m527 -42 c2 -22 0 -37 -4 -35 -8 5 -11
74 -4 74 2 0 6 -18 8 -39z m1155 -88 c-2 -21 -4 -6 -4 32 0 39 2 55 4 38 2
-18 2 -50 0 -70z m3308 67 c8 0 16 -4 20 -10 3 -5 -7 -5 -25 1 -18 7 -27 15
-23 22 5 8 8 8 11 -1 2 -7 10 -12 17 -12z m135 -82 l25 -20 -29 17 c-16 10
-44 26 -63 37 -18 11 -33 22 -33 25 0 7 71 -35 100 -59z m-4763 5 c-3 -10 -5
-2 -5 17 0 19 2 27 5 18 2 -10 2 -26 0 -35z m1465 -96 c2 -31 0 -57 -4 -57 -5
0 -7 37 -7 83 2 85 6 75 11 -26z m975 -214 c-1 -54 -3 -10 -3 97 0 107 2 151
3 98 2 -54 2 -142 0 -195z m2140 227 c114 -56 191 -132 242 -239 34 -72 36
-82 36 -176 0 -85 -4 -111 -29 -178 -57 -155 -148 -263 -273 -323 -41 -20 -72
-41 -70 -47 5 -16 64 -29 109 -25 44 4 47 -1 16 -29 -63 -57 -183 -74 -308
-44 -120 30 -257 118 -322 207 -29 40 -37 64 -47 127 -6 43 -11 109 -11 147 0
39 -3 70 -8 70 -39 0 -91 -88 -92 -154 l0 -39 -21 19 c-12 10 -30 37 -40 59
-77 173 31 407 235 504 68 33 164 61 207 61 22 0 29 6 34 29 6 28 36 63 65 75
8 3 54 4 102 3 79 -3 94 -7 175 -47z m-3250 -37 c-2 -16 -4 -3 -4 27 0 30 2
43 4 28 2 -16 2 -40 0 -55z m1760 -15 c-3 -8 -6 -5 -6 6 -1 11 2 17 5 13 3 -3
4 -12 1 -19z m-1750 -125 c-2 -21 -4 -6 -4 32 0 39 2 55 4 38 2 -18 2 -50 0
-70z m130 0 c-2 -21 -4 -6 -4 32 0 39 2 55 4 38 2 -18 2 -50 0 -70z m1261
-606 l147 -3 -152 -2 -153 -2 2 343 3 342 2 -337 3 -337 148 -4z m-1381 481
c-2 -18 -4 -6 -4 27 0 33 2 48 4 33 2 -15 2 -42 0 -60z m140 -153 l0 -60 -7
75 c-4 41 -7 107 -7 145 l0 70 8 -85 c4 -47 7 -112 6 -145z m960 -115 c0 -230
-5 -201 -9 58 -2 101 0 173 4 160 3 -13 6 -111 5 -218z m-1084 95 c6 -136 1
-120 -11 32 -4 57 -5 99 -1 95 4 -4 9 -61 12 -127z m144 -225 c0 -41 -1 -39
-7 15 -4 33 -8 83 -7 110 0 47 0 47 7 -15 4 -36 8 -85 7 -110z m-125 18 c3
-48 3 -48 -27 -47 -23 1 -25 3 -7 6 20 4 22 11 23 66 2 65 6 55 11 -25z m-239
-15 c-7 -2 -21 -2 -30 0 -10 3 -4 5 12 5 17 0 24 -2 18 -5z m176 -19 c8 -7
-73 -3 -119 6 -34 6 -25 7 35 3 44 -3 82 -7 84 -9z m236 -32 c-3 -3 -11 0 -18
7 -9 10 -8 11 6 5 10 -3 15 -9 12 -12z m58 1 c-7 -2 -21 -2 -30 0 -10 3 -4 5
12 5 17 0 24 -2 18 -5z m165 -10 c-21 -2 -55 -2 -75 0 -21 2 -4 4 37 4 41 0
58 -2 38 -4z m240 -10 c-32 -2 -84 -2 -115 0 -32 2 -6 3 57 3 63 0 89 -1 58
-3z m272 -7 c19 -1 -16 -3 -77 -4 -62 -1 -113 1 -113 6 0 6 107 6 190 -2z
m748 -3 c-16 -2 -40 -2 -55 0 -16 2 -3 4 27 4 30 0 43 -2 28 -4z m-841 -183
c149 -6 338 -10 420 -10 l150 0 31 -217 c18 -120 32 -224 32 -230 0 -7 -21
-41 -46 -75 -73 -100 -110 -182 -139 -311 l-6 -29 -349 4 -349 3 -6 50 c-15
119 -53 210 -130 312 l-46 63 31 212 c17 117 33 221 36 230 4 14 14 16 52 12
26 -2 169 -9 319 -14z m-864 -427 c-13 -2 -35 -2 -50 0 -16 2 -5 4 22 4 28 0
40 -2 28 -4z m-106 -9 c-3 -3 -12 -4 -19 -1 -8 3 -5 6 6 6 11 1 17 -2 13 -5z
m166 -1 c-7 -2 -19 -2 -25 0 -7 3 -2 5 12 5 14 0 19 -2 13 -5z m-204 -7 c-2
-2 -17 -6 -34 -10 -22 -5 -26 -4 -15 4 14 9 59 15 49 6z m275 -11 c20 -8 36
-17 36 -20 0 -4 -80 24 -89 32 -11 8 20 1 53 -12z m-354 -15 c-8 -5 -19 -10
-25 -10 -5 0 -3 5 5 10 8 5 20 10 25 10 6 0 3 -5 -5 -10z m2117 -1 c-40 -4
-94 -20 -132 -38 -73 -34 -88 -33 -22 0 64 33 117 48 172 47 47 -1 45 -1 -18
-9z m131 4 c-10 -2 -28 -2 -40 0 -13 2 -5 4 17 4 22 1 32 -1 23 -4z m49 -9
c-3 -3 -12 -4 -19 -1 -8 3 -5 6 6 6 11 1 17 -2 13 -5z m43 -14 c8 -5 11 -10 5
-10 -5 0 -17 5 -25 10 -8 5 -10 10 -5 10 6 0 17 -5 25 -10z m-2413 -13 c-10
-7 -43 -28 -74 -48 -30 -19 -85 -64 -121 -100 -36 -35 -51 -46 -33 -25 46 54
126 121 186 156 49 29 78 40 42 17z m2496 -27 c26 -16 47 -32 47 -36 0 -4 -6
-2 -13 4 -6 6 -32 22 -57 36 -25 14 -40 26 -34 26 5 0 31 -13 57 -30z m-560
-58 c-29 -26 -68 -71 -88 -101 -19 -29 -35 -50 -35 -45 0 20 68 109 114 149
68 60 75 58 9 -3z m-2223 -182 c-6 -11 -13 -20 -16 -20 -2 0 0 9 6 20 6 11 13
20 16 20 2 0 0 -9 -6 -20z m2091 -21 c-18 -52 -14 -96 11 -113 12 -9 18 -16
14 -16 -21 0 -46 35 -46 63 0 33 21 110 28 103 2 -3 -1 -19 -7 -37z m-2120
-36 c-12 -20 -14 -14 -5 12 4 9 9 14 11 11 3 -2 0 -13 -6 -23z m32 -61 l42
-11 -40 5 c-49 7 -55 11 -54 32 1 15 2 15 6 1 2 -9 22 -21 46 -27z m155 -29
c-10 -2 -26 -2 -35 0 -10 3 -2 5 17 5 19 0 27 -2 18 -5z m2027 -13 l20 -9 -20
0 c-11 0 -29 4 -40 9 l-20 9 20 0 c11 0 29 -4 40 -9z m110 -20 l30 -8 -30 0
c-16 0 -43 4 -60 8 l-30 8 30 0 c17 0 44 -4 60 -8z m113 -17 c-16 -2 -40 -2
-55 0 -16 2 -3 4 27 4 30 0 43 -2 28 -4z m385 -5 c-2 -5 -83 -8 -179 -8 -96 0
-174 3 -174 8 0 4 81 7 179 7 99 0 177 -3 174 -7z m95 5 c-16 -2 -40 -2 -55 0
-16 2 -3 4 27 4 30 0 43 -2 28 -4z"/>
<path d="M2587 7929 c7 -7 15 -10 18 -7 3 3 -2 9 -12 12 -14 6 -15 5 -6 -5z"/>
<path d="M2150 7891 c-302 -66 -534 -302 -612 -619 -29 -118 -28 -285 1 -397
91 -347 394 -585 746 -585 298 0 555 165 704 450 72 138 86 202 86 390 0 160
-1 168 -33 260 -68 195 -200 349 -373 434 -122 60 -190 77 -324 82 -83 3 -131
-1 -195 -15z m335 -146 c208 -44 383 -220 442 -445 23 -87 22 -262 -1 -349
-67 -247 -253 -433 -496 -497 -86 -22 -238 -22 -316 1 -190 55 -334 190 -403
378 -24 66 -26 85 -26 217 1 132 3 152 28 225 119 343 442 539 772 470z"/>
<path d="M2600 7897 c0 -15 -4 -16 -21 -7 -11 6 -25 9 -32 7 -7 -2 5 -9 26
-16 47 -16 60 -12 41 13 -12 18 -14 18 -14 3z"/>
<path d="M2685 7860 c4 -6 11 -8 16 -5 14 9 11 15 -7 15 -8 0 -12 -5 -9 -10z"/>
<path d="M1491 7034 c0 -11 3 -14 6 -6 3 7 2 16 -1 19 -3 4 -6 -2 -5 -13z"/>
<path d="M1485 7000 c3 -5 8 -10 11 -10 2 0 4 5 4 10 0 6 -5 10 -11 10 -5 0
-7 -4 -4 -10z"/>
<path d="M1502 6960 c0 -14 2 -19 5 -12 2 6 2 18 0 25 -3 6 -5 1 -5 -13z"/>
<path d="M1445 6933 c3 -7 1 -22 -5 -34 -7 -11 -9 -24 -5 -27 3 -3 8 4 12 16
4 18 9 20 24 11 15 -8 19 -6 19 6 0 9 -6 15 -12 12 -7 -2 -19 3 -26 12 -8 9
-11 10 -7 4z"/>
<path d="M3776 7814 c3 -16 1 -23 -6 -19 -6 4 -10 3 -9 -2 3 -18 -1 -46 -7
-41 -10 11 -12 43 -2 55 10 12 -8 30 -19 19 -4 -3 -1 -6 6 -6 7 0 9 -5 6 -10
-4 -6 -11 -8 -16 -4 -11 7 -49 -23 -49 -39 0 -5 7 -7 15 -3 8 3 15 1 15 -5 0
-5 -6 -12 -14 -15 -9 -3 -12 -13 -9 -22 4 -13 2 -13 -9 2 -14 18 -15 18 -20
-7 -3 -15 -1 -27 3 -27 5 0 9 -6 9 -14 0 -8 9 -18 20 -21 11 -3 20 -14 20 -23
0 -14 -2 -15 -9 -3 -6 10 -8 -4 -4 -37 4 -49 -6 -68 -22 -42 -3 6 -1 10 6 10
8 0 9 3 0 13 -6 8 -7 18 -3 22 4 5 2 5 -5 2 -6 -4 -13 -4 -16 0 -2 5 -2 3 -1
-4 2 -7 -1 -15 -7 -18 -7 -5 -10 -105 -2 -105 1 0 9 3 18 6 13 5 14 8 3 15 -9
6 -10 9 -1 9 7 0 10 7 7 15 -4 9 0 15 10 15 17 0 21 -12 9 -24 -4 -4 -6 -25
-4 -46 2 -31 -1 -40 -13 -40 -14 0 -14 3 -4 20 15 24 9 31 -20 23 -22 -5 -31
-23 -12 -23 6 0 10 -5 10 -11 0 -5 -5 -7 -10 -4 -7 4 -10 -6 -8 -29 1 -19 6
-32 10 -30 4 3 8 0 8 -5 0 -6 -4 -11 -10 -11 -5 0 -7 -7 -4 -15 4 -8 2 -15 -3
-15 -14 0 -27 -180 -14 -193 8 -8 6 -16 -3 -26 -18 -21 -26 -101 -9 -101 6 0
15 5 18 10 9 15 25 12 25 -5 0 -8 -5 -15 -10 -15 -6 0 -10 -6 -9 -12 4 -33 -2
-55 -16 -55 -9 0 -15 9 -15 21 0 15 3 17 9 8 7 -11 9 -11 14 1 3 7 2 19 -2 26
-13 20 -28 -9 -34 -68 -5 -41 -3 -57 8 -65 11 -8 12 -15 4 -26 -9 -13 -10 -12
-5 3 3 9 1 17 -4 17 -6 0 -10 -12 -10 -27 0 -16 -3 -51 -6 -79 -5 -43 -3 -52
11 -58 15 -5 16 -4 5 9 -7 9 -10 18 -6 22 3 3 6 1 6 -6 0 -7 4 -10 8 -7 13 8
11 -78 -2 -86 -17 -12 -24 -9 -29 10 -3 9 -5 -2 -6 -25 -1 -34 2 -41 14 -37
13 5 13 9 3 22 -11 13 -10 14 15 8 23 -5 27 -3 28 16 0 13 2 34 4 48 10 68 37
324 49 480 32 377 46 527 56 563 20 71 -66 66 1183 70 620 3 1131 7 1134 11 4
3 -179 6 -405 6 -227 -1 -417 2 -422 5 -6 3 -10 0 -10 -7 -1 -8 -5 -7 -14 5
-8 11 -15 14 -18 7 -5 -15 -58 -20 -58 -6 0 6 -5 4 -10 -4 -8 -12 -10 -12 -10
-1 0 8 -3 11 -7 8 -3 -4 -13 -1 -21 6 -13 9 -14 9 -8 0 8 -15 7 -15 -56 -18
-27 -1 -48 2 -48 7 0 4 -7 8 -15 8 -8 0 -15 -4 -15 -8 0 -4 -9 -8 -20 -9 -13
-1 -18 2 -14 9 5 7 2 8 -7 2 -8 -4 -33 -9 -57 -10 -36 -2 -42 0 -37 14 5 12 1
12 -16 -4 l-22 -19 7 25 c6 24 6 24 -5 3 -9 -18 -16 -20 -36 -12 -16 6 -22 5
-18 -1 3 -6 1 -10 -4 -10 -6 0 -11 5 -11 10 0 7 -6 7 -17 2 -20 -10 -104 -9
-121 1 -5 4 -13 1 -15 -5 -3 -7 -6 -8 -6 -3 -1 6 -36 9 -88 9 -70 -1 -90 2
-100 15 -11 13 -12 13 -8 1 4 -10 -1 -16 -12 -17 -10 -1 -23 -2 -28 -3 -6 -1
-22 -2 -37 -1 -21 1 -28 6 -28 22 0 13 -4 18 -12 13 -9 -5 -9 -2 1 9 12 15 10
17 -25 16 -22 -1 -30 -4 -19 -6 22 -4 51 -41 40 -51 -3 -4 -10 0 -15 8 -7 10
-10 11 -10 3 0 -7 -6 -13 -14 -13 -9 0 -13 8 -10 23 2 12 1 15 -2 7 -4 -8 -12
-18 -18 -22 -16 -11 -188 -10 -182 1 3 5 -1 11 -9 14 -9 4 -12 1 -8 -9 4 -11
-9 -14 -70 -14 -42 0 -84 -3 -94 -7 -17 -7 -17 -6 1 12 11 11 14 21 8 23 -6 2
-8 10 -5 18 3 8 0 14 -5 14 -6 0 -9 -12 -6 -26z m-40 -32 c-3 -2 -1 -13 5 -23
8 -16 6 -19 -11 -19 -11 0 -20 -5 -20 -11 0 -5 5 -7 12 -3 7 5 8 3 3 -5 -5
-10 -10 -10 -19 -1 -8 8 -6 15 7 25 12 8 14 15 8 20 -17 10 -13 35 4 28 9 -3
14 -8 11 -11z m-26 -103 c-13 -24 -16 -24 -22 -1 -4 12 1 18 13 19 16 2 17 -2
9 -18z m-40 -139 c0 -5 -4 -10 -10 -10 -5 0 -10 5 -10 10 0 6 5 10 10 10 6 0
10 -4 10 -10z m-1 -154 c8 -13 12 -29 9 -36 -2 -6 -11 5 -21 24 -18 40 -8 50
12 12z m6 -66 c3 -6 -1 -7 -9 -4 -18 7 -21 14 -7 14 6 0 13 -4 16 -10z m-5
-41 c0 -11 -4 -18 -10 -14 -5 3 -7 12 -3 20 7 21 13 19 13 -6z m-11 -33 c10
-12 12 -71 2 -61 -2 3 -10 -3 -18 -13 -8 -9 -12 -11 -8 -4 3 6 1 12 -5 12 -7
0 -10 6 -7 13 2 6 11 11 21 9 9 -2 16 2 16 8 0 5 -8 11 -17 11 -17 1 -17 2 0
6 9 2 15 9 11 14 -3 5 -10 7 -15 4 -5 -4 -9 -1 -9 4 0 15 15 14 29 -3z m1 -96
c0 -5 -8 -10 -17 -10 -15 0 -16 2 -3 10 19 12 20 12 20 0z m0 -52 c0 -25 -3
-29 -10 -18 -8 12 -10 12 -10 1 0 -8 -3 -11 -6 -8 -4 4 -1 13 5 21 7 8 10 20
6 26 -3 5 -1 10 4 10 6 0 11 -15 11 -32z m-20 -48 c8 -5 11 -12 8 -16 -4 -3
-14 1 -23 10 -18 17 -9 21 15 6z m2 -161 c-3 -21 -7 -27 -13 -18 -4 7 -3 21 2
31 14 25 16 23 11 -13z m-32 -9 c0 -5 -5 -10 -11 -10 -5 0 -7 5 -4 10 3 6 8
10 11 10 2 0 4 -4 4 -10z m5 -108 c2 -12 -3 -23 -11 -26 -9 -3 -12 -11 -8 -17
4 -8 3 -9 -4 -5 -9 5 -9 13 0 29 7 12 11 29 9 37 -2 8 0 12 3 9 4 -4 8 -16 11
-27z"/>
<path d="M3838 7833 c18 -2 45 -2 60 0 15 2 0 4 -33 4 -33 0 -45 -2 -27 -4z"/>
<path d="M4010 7830 c0 -5 7 -7 15 -4 8 4 15 8 15 10 0 2 -7 4 -15 4 -8 0 -15
-4 -15 -10z"/>
<path d="M4108 7833 c7 -3 16 -2 19 1 4 3 -2 6 -13 5 -11 0 -14 -3 -6 -6z"/>
<path d="M4250 7830 c8 -5 20 -10 25 -10 6 0 3 5 -5 10 -8 5 -19 10 -25 10 -5
0 -3 -5 5 -10z"/>
<path d="M4315 7830 c-3 -5 1 -10 10 -10 9 0 13 5 10 10 -3 6 -8 10 -10 10 -2
0 -7 -4 -10 -10z"/>
<path d="M4366 7832 c-3 -5 1 -9 9 -9 8 0 12 4 9 9 -3 4 -7 8 -9 8 -2 0 -6 -4
-9 -8z"/>
<path d="M4410 7821 c0 -5 7 -12 16 -15 14 -5 15 -4 4 9 -14 17 -20 19 -20 6z"/>
<path d="M4546 7821 c-3 -4 6 -6 19 -3 14 2 25 6 25 8 0 8 -39 4 -44 -5z"/>
<path d="M4597 7815 c-4 -8 -3 -16 1 -19 4 -3 9 4 9 15 2 23 -3 25 -10 4z"/>
<path d="M4640 7826 c0 -2 7 -7 16 -10 8 -3 12 -2 9 4 -6 10 -25 14 -25 6z"/>
<path d="M4708 7823 c6 -2 18 -2 25 0 6 3 1 5 -13 5 -14 0 -19 -2 -12 -5z"/>
<path d="M4763 7823 c9 -2 25 -2 35 0 9 3 1 5 -18 5 -19 0 -27 -2 -17 -5z"/>
<path d="M4863 7823 c15 -2 27 -9 27 -14 0 -6 5 -7 10 -4 20 12 9 21 -27 22
-27 0 -30 -1 -10 -4z"/>
<path d="M4920 7819 c0 -5 5 -7 10 -4 6 3 10 8 10 11 0 2 -4 4 -10 4 -5 0 -10
-5 -10 -11z"/>
<path d="M4973 7823 c15 -2 37 -2 50 0 12 2 0 4 -28 4 -27 0 -38 -2 -22 -4z"/>
<path d="M5067 7815 c10 -7 20 -10 23 -6 3 4 41 8 85 10 120 4 105 12 -18 10
-91 -1 -105 -3 -90 -14z"/>
<path d="M5293 7823 c15 -2 37 -2 50 0 12 2 0 4 -28 4 -27 0 -38 -2 -22 -4z"/>
<path d="M5378 7823 c7 -3 16 -2 19 1 4 3 -2 6 -13 5 -11 0 -14 -3 -6 -6z"/>
<path d="M5550 7819 c0 -5 5 -7 10 -4 6 3 10 8 10 11 0 2 -4 4 -10 4 -5 0 -10
-5 -10 -11z"/>
<path d="M4265 7800 c-3 -5 -1 -10 4 -10 6 0 11 5 11 10 0 6 -2 10 -4 10 -3 0
-8 -4 -11 -10z"/>
<path d="M4490 7800 c-13 -8 -13 -10 2 -10 9 0 20 5 23 10 8 13 -5 13 -25 0z"/>
<path d="M4836 7798 c3 -5 10 -6 15 -3 13 9 11 12 -6 12 -8 0 -12 -4 -9 -9z"/>
<path d="M5260 7800 c-9 -6 -10 -10 -3 -10 6 0 15 5 18 10 8 12 4 12 -15 0z"/>
<path d="M4650 7789 c0 -5 5 -7 10 -4 6 3 10 8 10 11 0 2 -4 4 -10 4 -5 0 -10
-5 -10 -11z"/>
<path d="M3650 7652 c0 -18 5 -29 14 -29 11 0 12 6 4 29 -6 15 -12 28 -14 28
-2 0 -4 -13 -4 -28z"/>
<path d="M4602 7590 c-105 -28 -203 -83 -288 -163 -135 -126 -211 -257 -245
-422 -41 -199 -8 -383 100 -547 60 -93 134 -158 236 -209 110 -55 202 -72 345
-66 210 9 338 62 470 196 140 141 208 296 217 496 7 152 -12 252 -73 373 -81
160 -220 279 -389 332 -101 32 -274 37 -373 10z m273 -245 c183 -48 305 -222
305 -436 0 -136 -53 -261 -151 -354 -135 -129 -336 -160 -499 -79 -308 155
-281 663 45 832 99 51 199 63 300 37z"/>
<path d="M4690 7098 c-25 -4 -56 -16 -70 -26 -71 -53 -113 -175 -91 -260 49
-179 302 -190 382 -17 24 52 24 138 0 190 -16 36 -81 105 -99 105 -4 0 -23 4
-42 8 -19 5 -55 5 -80 0z"/>
<path d="M3569 6661 c11 -7 11 -9 0 -14 -10 -4 -10 -6 -1 -6 6 -1 12 -8 12
-17 0 -8 5 -12 10 -9 8 5 7 11 -1 21 -9 11 -8 14 2 14 11 0 11 2 -1 10 -8 5
-19 10 -25 10 -5 0 -4 -4 4 -9z"/>
<path d="M3599 6538 c-1 -18 -1 -40 0 -48 1 -10 -1 -11 -6 -4 -4 6 -15 13 -24
16 -14 6 -18 -12 -29 -132 -14 -149 -10 -189 19 -234 19 -28 19 -28 18 -5 0
13 3 68 7 122 8 92 7 97 -10 92 -14 -4 -13 -3 2 6 19 9 23 23 29 98 4 47 9 94
11 104 1 9 -1 17 -7 17 -5 0 -10 -15 -10 -32z m-23 -57 c-4 -5 0 -12 6 -14 8
-3 6 -6 -4 -6 -10 -1 -18 6 -18 14 0 8 5 15 11 15 5 0 8 -4 5 -9z m14 -58 c0
-20 -3 -24 -9 -14 -7 11 -11 10 -20 -5 -6 -11 -11 -15 -11 -10 0 5 8 18 18 29
9 11 11 17 5 13 -7 -4 -13 -2 -13 3 0 6 7 11 15 11 10 0 15 -10 15 -27z m-30
-118 c0 -8 -4 -15 -10 -15 -5 0 -7 7 -4 15 4 8 8 15 10 15 2 0 4 -7 4 -15z
m-5 -64 c3 -5 2 -12 -3 -15 -5 -3 -9 1 -9 9 0 17 3 19 12 6z"/>
<path d="M3550 6530 c0 -5 7 -6 17 -3 11 4 14 3 9 -5 -4 -7 -2 -12 3 -12 6 0
11 7 11 15 0 8 -9 15 -20 15 -11 0 -20 -4 -20 -10z"/>
<path d="M6862 6639 c2 -7 12 -13 21 -15 23 -3 21 3 -4 17 -17 8 -20 8 -17 -2z"/>
</g>
</svg>
